0
SECTION
2
HEADER
9
$ACADVER
1
AC1008
9
$UCSORG
10
0.0
20
0.0
30
0.0
9
$UCSXDIR
10
1.0
20
0.0
30
0.0
9
$TILEMODE
70
1
9
$UCSYDIR
10
0.0
20
1.0
30
0.0
9
$EXTMIN
10
-100.000015
20
-23.125019
30
-0.000003
9
$EXTMAX
10
100.000031
20
23.124994
30
119.875008
0
ENDSEC
0
SECTION
2
TABLES
0
TABLE
2
LTYPE
70
1
0
LTYPE
2
CONTINUOUS
70
64
3
Solid line
72
65
73
0
40
0.0
0
ENDTAB
0
TABLE
2
LAYER
70
3
0
LAYER
2
CABINET
70
0
62
71
6
CONTINUOUS
0
LAYER
2
DOOR02
70
0
62
13
6
CONTINUOUS
0
LAYER
2
DOOR01
70
0
62
44
6
CONTINUOUS
0
ENDTAB
0
TABLE
2
STYLE
70
1
0
STYLE
2
STANDARD
70
0
40
0.0
41
1.0
50
0.0
71
0
42
0.2
3
txt
4

0
ENDTAB
0
TABLE
2
UCS
70
0
0
ENDTAB
0
ENDSEC
0
SECTION
2
ENTITIES
0
POLYLINE
8
CABINET
66
1
70
64
71
160
72
252
62
71
0
VERTEX
8
CABINET
10
-90.499947
20
-15.875019
30
0.000013
70
192
0
VERTEX
8
CABINET
10
-89.499947
20
-15.875019
30
0.000013
70
192
0
VERTEX
8
CABINET
10
-89.499947
20
-15.875019
30
7.035719
70
192
0
VERTEX
8
CABINET
10
-90.499947
20
-15.875019
30
7.035719
70
192
0
VERTEX
8
CABINET
10
-90.499947
20
-18.875019
30
0.000013
70
192
0
VERTEX
8
CABINET
10
-89.499947
20
-18.875019
30
0.000013
70
192
0
VERTEX
8
CABINET
10
-89.499947
20
-18.875019
30
7.035719
70
192
0
VERTEX
8
CABINET
10
-90.499947
20
-18.875019
30
7.035719
70
192
0
VERTEX
8
CABINET
10
-0.499947
20
-15.875010
30
0.000005
70
192
0
VERTEX
8
CABINET
10
0.500053
20
-15.875010
30
0.000005
70
192
0
VERTEX
8
CABINET
10
0.500054
20
-15.875010
30
7.035719
70
192
0
VERTEX
8
CABINET
10
-0.499946
20
-15.875010
30
7.035719
70
192
0
VERTEX
8
CABINET
10
-0.499947
20
-18.875011
30
0.000005
70
192
0
VERTEX
8
CABINET
10
0.500053
20
-18.875011
30
0.000005
70
192
0
VERTEX
8
CABINET
10
0.500054
20
-18.875011
30
7.035719
70
192
0
VERTEX
8
CABINET
10
-0.499946
20
-18.875011
30
7.035719
70
192
0
VERTEX
8
CABINET
10
89.500053
20
-15.875008
30
-0.000003
70
192
0
VERTEX
8
CABINET
10
90.500053
20
-15.875006
30
-0.000003
70
192
0
VERTEX
8
CABINET
10
90.500053
20
-15.875006
30
7.035719
70
192
0
VERTEX
8
CABINET
10
89.500053
20
-15.875008
30
7.035719
70
192
0
VERTEX
8
CABINET
10
89.500053
20
-18.875008
30
-0.000003
70
192
0
VERTEX
8
CABINET
10
90.500053
20
-18.875006
30
-0.000003
70
192
0
VERTEX
8
CABINET
10
90.500053
20
-18.875006
30
7.035719
70
192
0
VERTEX
8
CABINET
10
89.500053
20
-18.875008
30
7.035719
70
192
0
VERTEX
8
CABINET
10
-90.499947
20
21.124983
30
0.000013
70
192
0
VERTEX
8
CABINET
10
-89.499947
20
21.124983
30
0.000013
70
192
0
VERTEX
8
CABINET
10
-89.499947
20
21.124983
30
7.035721
70
192
0
VERTEX
8
CABINET
10
-90.499947
20
21.124983
30
7.035721
70
192
0
VERTEX
8
CABINET
10
-90.499947
20
18.124979
30
0.000013
70
192
0
VERTEX
8
CABINET
10
-89.499947
20
18.124979
30
0.000013
70
192
0
VERTEX
8
CABINET
10
-89.499947
20
18.124979
30
7.035721
70
192
0
VERTEX
8
CABINET
10
-90.499947
20
18.124979
30
7.035721
70
192
0
VERTEX
8
CABINET
10
-0.499950
20
21.124987
30
0.000005
70
192
0
VERTEX
8
CABINET
10
0.500050
20
21.124987
30
0.000005
70
192
0
VERTEX
8
CABINET
10
0.500050
20
21.124987
30
7.035721
70
192
0
VERTEX
8
CABINET
10
-0.499950
20
21.124987
30
7.035721
70
192
0
VERTEX
8
CABINET
10
-0.499950
20
18.124987
30
0.000005
70
192
0
VERTEX
8
CABINET
10
0.500050
20
18.124987
30
0.000005
70
192
0
VERTEX
8
CABINET
10
0.500051
20
18.124987
30
7.035721
70
192
0
VERTEX
8
CABINET
10
-0.499949
20
18.124987
30
7.035721
70
192
0
VERTEX
8
CABINET
10
89.500053
20
21.124998
30
-0.000003
70
192
0
VERTEX
8
CABINET
10
90.500053
20
21.124998
30
-0.000003
70
192
0
VERTEX
8
CABINET
10
90.500053
20
21.124998
30
7.035721
70
192
0
VERTEX
8
CABINET
10
89.500053
20
21.124998
30
7.035721
70
192
0
VERTEX
8
CABINET
10
89.500053
20
18.124998
30
-0.000003
70
192
0
VERTEX
8
CABINET
10
90.500053
20
18.124998
30
-0.000003
70
192
0
VERTEX
8
CABINET
10
90.500053
20
18.124998
30
7.035721
70
192
0
VERTEX
8
CABINET
10
89.500053
20
18.124998
30
7.035721
70
192
0
VERTEX
8
CABINET
10
96.875023
20
23.124994
30
10.040633
70
192
0
VERTEX
8
CABINET
10
96.875038
20
23.124994
30
116.875008
70
192
0
VERTEX
8
CABINET
10
-96.874985
20
23.124969
30
116.875008
70
192
0
VERTEX
8
CABINET
10
-96.874977
20
23.124969
30
10.040633
70
192
0
VERTEX
8
CABINET
10
96.875023
20
21.624994
30
10.040633
70
192
0
VERTEX
8
CABINET
10
96.875038
20
21.624994
30
116.875008
70
192
0
VERTEX
8
CABINET
10
-96.874985
20
21.624969
30
116.875008
70
192
0
VERTEX
8
CABINET
10
-96.874977
20
21.624969
30
10.040633
70
192
0
VERTEX
8
CABINET
10
100.000031
20
23.124994
30
119.875008
70
192
0
VERTEX
8
CABINET
10
100.000031
20
-21.875002
30
119.875008
70
192
0
VERTEX
8
CABINET
10
-99.999985
20
-21.875027
30
119.875008
70
192
0
VERTEX
8
CABINET
10
-99.999985
20
23.124969
30
119.875008
70
192
0
VERTEX
8
CABINET
10
100.000031
20
23.124994
30
116.875008
70
192
0
VERTEX
8
CABINET
10
100.000031
20
-21.875002
30
116.875008
70
192
0
VERTEX
8
CABINET
10
-99.999985
20
-21.875027
30
116.875008
70
192
0
VERTEX
8
CABINET
10
-99.999985
20
23.124969
30
116.875008
70
192
0
VERTEX
8
CABINET
10
100.000023
20
23.124994
30
10.040633
70
192
0
VERTEX
8
CABINET
10
100.000023
20
-21.875002
30
10.040631
70
192
0
VERTEX
8
CABINET
10
-99.999977
20
-21.875027
30
10.040631
70
192
0
VERTEX
8
CABINET
10
-99.999977
20
23.124969
30
10.040633
70
192
0
VERTEX
8
CABINET
10
100.000023
20
23.124994
30
7.035721
70
192
0
VERTEX
8
CABINET
10
100.000023
20
-21.875002
30
7.035719
70
192
0
VERTEX
8
CABINET
10
-99.999977
20
-21.875027
30
7.035719
70
192
0
VERTEX
8
CABINET
10
-99.999977
20
23.124969
30
7.035721
70
192
0
VERTEX
8
CABINET
10
-96.999977
20
23.124969
30
10.040633
70
192
0
VERTEX
8
CABINET
10
-96.999977
20
-21.875027
30
10.040631
70
192
0
VERTEX
8
CABINET
10
-97.000015
20
-21.875027
30
116.875008
70
192
0
VERTEX
8
CABINET
10
-96.999985
20
23.124969
30
116.875008
70
192
0
VERTEX
8
CABINET
10
-99.999977
20
23.124969
30
10.040633
70
192
0
VERTEX
8
CABINET
10
-99.999977
20
-21.875027
30
10.040631
70
192
0
VERTEX
8
CABINET
10
-100.000015
20
-21.875027
30
116.875008
70
192
0
VERTEX
8
CABINET
10
-99.999985
20
23.124969
30
116.875008
70
192
0
VERTEX
8
CABINET
10
1.500020
20
21.624983
30
10.040633
70
192
0
VERTEX
8
CABINET
10
1.500023
20
-18.625015
30
10.040631
70
192
0
VERTEX
8
CABINET
10
1.500002
20
-18.625015
30
116.875008
70
192
0
VERTEX
8
CABINET
10
1.500022
20
21.624983
30
116.875008
70
192
0
VERTEX
8
CABINET
10
-1.499980
20
21.624983
30
10.040633
70
192
0
VERTEX
8
CABINET
10
-1.499977
20
-18.625015
30
10.040631
70
192
0
VERTEX
8
CABINET
10
-1.499998
20
-18.625015
30
116.875008
70
192
0
VERTEX
8
CABINET
10
-1.499978
20
21.624983
30
116.875008
70
192
0
VERTEX
8
CABINET
10
100.000023
20
23.124994
30
10.040633
70
192
0
VERTEX
8
CABINET
10
100.000023
20
-21.875002
30
10.040631
70
192
0
VERTEX
8
CABINET
10
100.000015
20
-21.875002
30
116.875008
70
192
0
VERTEX
8
CABINET
10
100.000015
20
23.124994
30
116.875008
70
192
0
VERTEX
8
CABINET
10
97.000023
20
23.124994
30
10.040633
70
192
0
VERTEX
8
CABINET
10
97.000023
20
-21.875006
30
10.040631
70
192
0
VERTEX
8
CABINET
10
97.000023
20
-21.875006
30
116.875008
70
192
0
VERTEX
8
CABINET
10
97.000023
20
23.124994
30
116.875008
70
192
0
VERTEX
8
CABINET
10
96.875023
20
21.624994
30
85.000008
70
192
0
VERTEX
8
CABINET
10
96.875023
20
-18.375006
30
85.000008
70
192
0
VERTEX
8
CABINET
10
-96.874985
20
-18.375027
30
85.000008
70
192
0
VERTEX
8
CABINET
10
-96.874977
20
21.624969
30
85.000008
70
192
0
VERTEX
8
CABINET
10
96.875023
20
21.624994
30
83.500008
70
192
0
VERTEX
8
CABINET
10
96.875023
20
-18.375006
30
83.500008
70
192
0
VERTEX
8
CABINET
10
-96.874985
20
-18.375027
30
83.500008
70
192
0
VERTEX
8
CABINET
10
-96.874977
20
21.624969
30
83.500008
70
192
0
VERTEX
8
CABINET
10
96.875023
20
21.624994
30
50.000004
70
192
0
VERTEX
8
CABINET
10
96.875023
20
-18.375006
30
50.000004
70
192
0
VERTEX
8
CABINET
10
-96.874969
20
-18.375027
30
50.000008
70
192
0
VERTEX
8
CABINET
10
-96.874977
20
21.624969
30
50.000008
70
192
0
VERTEX
8
CABINET
10
96.875023
20
21.624994
30
48.500004
70
192
0
VERTEX
8
CABINET
10
96.875023
20
-18.375006
30
48.500004
70
192
0
VERTEX
8
CABINET
10
-96.874969
20
-18.375027
30
48.500008
70
192
0
VERTEX
8
CABINET
10
-96.874977
20
21.624969
30
48.500008
70
192
0
VERTEX
8
CABINET
10
97.000023
20
-20.933594
30
116.394203
70
192
0
VERTEX
8
CABINET
10
97.000023
20
-20.883301
30
116.394203
70
192
0
VERTEX
8
CABINET
10
97.000023
20
-20.883301
30
116.587929
70
192
0
VERTEX
8
CABINET
10
97.000023
20
-20.364656
30
116.587929
70
192
0
VERTEX
8
CABINET
10
97.000023
20
-20.364658
30
116.394203
70
192
0
VERTEX
8
CABINET
10
97.000023
20
-20.307978
30
116.394203
70
192
0
VERTEX
8
CABINET
10
97.000023
20
-20.307978
30
116.875008
70
192
0
VERTEX
8
CABINET
10
97.000023
20
-20.933594
30
116.875008
70
192
0
VERTEX
8
CABINET
10
-96.999977
20
-20.933594
30
116.394203
70
192
0
VERTEX
8
CABINET
10
-96.999977
20
-20.883301
30
116.394203
70
192
0
VERTEX
8
CABINET
10
-96.999977
20
-20.883301
30
116.587929
70
192
0
VERTEX
8
CABINET
10
-96.999977
20
-20.364658
30
116.587929
70
192
0
VERTEX
8
CABINET
10
-96.999977
20
-20.364658
30
116.394203
70
192
0
VERTEX
8
CABINET
10
-96.999977
20
-20.307978
30
116.394203
70
192
0
VERTEX
8
CABINET
10
-96.999977
20
-20.307978
30
116.875008
70
192
0
VERTEX
8
CABINET
10
-96.999977
20
-20.933594
30
116.875008
70
192
0
VERTEX
8
CABINET
10
97.000023
20
-20.933298
30
10.521428
70
192
0
VERTEX
8
CABINET
10
97.000023
20
-20.883005
30
10.521428
70
192
0
VERTEX
8
CABINET
10
97.000023
20
-20.883007
30
10.327703
70
192
0
VERTEX
8
CABINET
10
97.000023
20
-20.364363
30
10.327703
70
192
0
VERTEX
8
CABINET
10
97.000023
20
-20.364365
30
10.521428
70
192
0
VERTEX
8
CABINET
10
97.000023
20
-20.307682
30
10.521428
70
192
0
VERTEX
8
CABINET
10
97.000023
20
-20.307682
30
10.040631
70
192
0
VERTEX
8
CABINET
10
97.000023
20
-20.933298
30
10.040631
70
192
0
VERTEX
8
CABINET
10
-96.999977
20
-20.933298
30
10.521434
70
192
0
VERTEX
8
CABINET
10
-96.999977
20
-20.883005
30
10.521434
70
192
0
VERTEX
8
CABINET
10
-96.999977
20
-20.883007
30
10.327708
70
192
0
VERTEX
8
CABINET
10
-96.999977
20
-20.364363
30
10.327708
70
192
0
VERTEX
8
CABINET
10
-96.999977
20
-20.364365
30
10.521434
70
192
0
VERTEX
8
CABINET
10
-96.999977
20
-20.307682
30
10.521434
70
192
0
VERTEX
8
CABINET
10
-96.999977
20
-20.307682
30
10.040629
70
192
0
VERTEX
8
CABINET
10
-96.999977
20
-20.933298
30
10.040629
70
192
0
VERTEX
8
CABINET
10
97.000023
20
-19.933878
30
10.521428
70
192
0
VERTEX
8
CABINET
10
-96.999977
20
-19.883585
30
10.521434
70
192
0
VERTEX
8
CABINET
10
97.000023
20
-19.883585
30
10.521428
70
192
0
VERTEX
8
CABINET
10
-96.999977
20
-19.933878
30
10.521434
70
192
0
VERTEX
8
CABINET
10
-96.999977
20
-19.883585
30
10.327708
70
192
0
VERTEX
8
CABINET
10
97.000023
20
-19.883585
30
10.327703
70
192
0
VERTEX
8
CABINET
10
-96.999977
20
-19.364943
30
10.327708
70
192
0
VERTEX
8
CABINET
10
97.000023
20
-19.364943
30
10.327703
70
192
0
VERTEX
8
CABINET
10
-96.999977
20
-19.364943
30
10.521434
70
192
0
VERTEX
8
CABINET
10
97.000023
20
-19.364943
30
10.521428
70
192
0
VERTEX
8
CABINET
10
-96.999977
20
-19.308262
30
10.521434
70
192
0
VERTEX
8
CABINET
10
97.000023
20
-19.308262
30
10.521428
70
192
0
VERTEX
8
CABINET
10
-96.999977
20
-19.308262
30
10.040629
70
192
0
VERTEX
8
CABINET
10
97.000023
20
-19.308262
30
10.040631
70
192
0
VERTEX
8
CABINET
10
-96.999977
20
-19.933878
30
10.040629
70
192
0
VERTEX
8
CABINET
10
97.000023
20
-19.933878
30
10.040631
70
192
0
VERTEX
8
CABINET
10
0
20
0
30
0
70
128
71
-1
72
3
73
2
0
VERTEX
8
CABINET
10
0
20
0
30
0
70
128
71
1
72
4
73
-3
0
VERTEX
8
CABINET
10
0
20
0
30
0
70
128
71
-1
72
6
73
5
0
VERTEX
8
CABINET
10
0
20
0
30
0
70
128
71
1
72
2
73
-6
0
VERTEX
8
CABINET
10
0
20
0
30
0
70
128
71
-2
72
7
73
6
0
VERTEX
8
CABINET
10
0
20
0
30
0
70
128
71
2
72
3
73
-7
0
VERTEX
8
CABINET
10
0
20
0
30
0
70
128
71
-3
72
8
73
7
0
VERTEX
8
CABINET
10
0
20
0
30
0
70
128
71
3
72
4
73
-8
0
VERTEX
8
CABINET
10
0
20
0
30
0
70
128
71
-4
72
5
73
8
0
VERTEX
8
CABINET
10
0
20
0
30
0
70
128
71
4
72
1
73
-5
0
VERTEX
8
CABINET
10
0
20
0
30
0
70
128
71
-5
72
7
73
8
0
VERTEX
8
CABINET
10
0
20
0
30
0
70
128
71
5
72
6
73
-7
0
VERTEX
8
CABINET
10
0
20
0
30
0
70
128
71
-9
72
11
73
10
0
VERTEX
8
CABINET
10
0
20
0
30
0
70
128
71
9
72
12
73
-11
0
VERTEX
8
CABINET
10
0
20
0
30
0
70
128
71
-9
72
14
73
13
0
VERTEX
8
CABINET
10
0
20
0
30
0
70
128
71
9
72
10
73
-14
0
VERTEX
8
CABINET
10
0
20
0
30
0
70
128
71
-10
72
15
73
14
0
VERTEX
8
CABINET
10
0
20
0
30
0
70
128
71
10
72
11
73
-15
0
VERTEX
8
CABINET
10
0
20
0
30
0
70
128
71
-11
72
16
73
15
0
VERTEX
8
CABINET
10
0
20
0
30
0
70
128
71
11
72
12
73
-16
0
VERTEX
8
CABINET
10
0
20
0
30
0
70
128
71
-12
72
13
73
16
0
VERTEX
8
CABINET
10
0
20
0
30
0
70
128
71
12
72
9
73
-13
0
VERTEX
8
CABINET
10
0
20
0
30
0
70
128
71
-13
72
15
73
16
0
VERTEX
8
CABINET
10
0
20
0
30
0
70
128
71
13
72
14
73
-15
0
VERTEX
8
CABINET
10
0
20
0
30
0
70
128
71
-17
72
19
73
18
0
VERTEX
8
CABINET
10
0
20
0
30
0
70
128
71
17
72
20
73
-19
0
VERTEX
8
CABINET
10
0
20
0
30
0
70
128
71
-17
72
22
73
21
0
VERTEX
8
CABINET
10
0
20
0
30
0
70
128
71
17
72
18
73
-22
0
VERTEX
8
CABINET
10
0
20
0
30
0
70
128
71
-18
72
23
73
22
0
VERTEX
8
CABINET
10
0
20
0
30
0
70
128
71
18
72
19
73
-23
0
VERTEX
8
CABINET
10
0
20
0
30
0
70
128
71
-19
72
24
73
23
0
VERTEX
8
CABINET
10
0
20
0
30
0
70
128
71
19
72
20
73
-24
0
VERTEX
8
CABINET
10
0
20
0
30
0
70
128
71
-20
72
21
73
24
0
VERTEX
8
CABINET
10
0
20
0
30
0
70
128
71
20
72
17
73
-21
0
VERTEX
8
CABINET
10
0
20
0
30
0
70
128
71
-21
72
23
73
24
0
VERTEX
8
CABINET
10
0
20
0
30
0
70
128
71
21
72
22
73
-23
0
VERTEX
8
CABINET
10
0
20
0
30
0
70
128
71
-25
72
27
73
26
0
VERTEX
8
CABINET
10
0
20
0
30
0
70
128
71
25
72
28
73
-27
0
VERTEX
8
CABINET
10
0
20
0
30
0
70
128
71
-25
72
30
73
29
0
VERTEX
8
CABINET
10
0
20
0
30
0
70
128
71
25
72
26
73
-30
0
VERTEX
8
CABINET
10
0
20
0
30
0
70
128
71
-26
72
31
73
30
0
VERTEX
8
CABINET
10
0
20
0
30
0
70
128
71
26
72
27
73
-31
0
VERTEX
8
CABINET
10
0
20
0
30
0
70
128
71
-27
72
32
73
31
0
VERTEX
8
CABINET
10
0
20
0
30
0
70
128
71
27
72
28
73
-32
0
VERTEX
8
CABINET
10
0
20
0
30
0
70
128
71
-28
72
29
73
32
0
VERTEX
8
CABINET
10
0
20
0
30
0
70
128
71
28
72
25
73
-29
0
VERTEX
8
CABINET
10
0
20
0
30
0
70
128
71
-29
72
31
73
32
0
VERTEX
8
CABINET
10
0
20
0
30
0
70
128
71
29
72
30
73
-31
0
VERTEX
8
CABINET
10
0
20
0
30
0
70
128
71
-33
72
35
73
34
0
VERTEX
8
CABINET
10
0
20
0
30
0
70
128
71
33
72
36
73
-35
0
VERTEX
8
CABINET
10
0
20
0
30
0
70
128
71
-33
72
38
73
37
0
VERTEX
8
CABINET
10
0
20
0
30
0
70
128
71
33
72
34
73
-38
0
VERTEX
8
CABINET
10
0
20
0
30
0
70
128
71
-34
72
39
73
38
0
VERTEX
8
CABINET
10
0
20
0
30
0
70
128
71
34
72
35
73
-39
0
VERTEX
8
CABINET
10
0
20
0
30
0
70
128
71
-35
72
40
73
39
0
VERTEX
8
CABINET
10
0
20
0
30
0
70
128
71
35
72
36
73
-40
0
VERTEX
8
CABINET
10
0
20
0
30
0
70
128
71
-36
72
37
73
40
0
VERTEX
8
CABINET
10
0
20
0
30
0
70
128
71
36
72
33
73
-37
0
VERTEX
8
CABINET
10
0
20
0
30
0
70
128
71
-37
72
39
73
40
0
VERTEX
8
CABINET
10
0
20
0
30
0
70
128
71
37
72
38
73
-39
0
VERTEX
8
CABINET
10
0
20
0
30
0
70
128
71
-41
72
43
73
42
0
VERTEX
8
CABINET
10
0
20
0
30
0
70
128
71
41
72
44
73
-43
0
VERTEX
8
CABINET
10
0
20
0
30
0
70
128
71
-41
72
46
73
45
0
VERTEX
8
CABINET
10
0
20
0
30
0
70
128
71
41
72
42
73
-46
0
VERTEX
8
CABINET
10
0
20
0
30
0
70
128
71
-42
72
47
73
46
0
VERTEX
8
CABINET
10
0
20
0
30
0
70
128
71
42
72
43
73
-47
0
VERTEX
8
CABINET
10
0
20
0
30
0
70
128
71
-43
72
48
73
47
0
VERTEX
8
CABINET
10
0
20
0
30
0
70
128
71
43
72
44
73
-48
0
VERTEX
8
CABINET
10
0
20
0
30
0
70
128
71
-44
72
45
73
48
0
VERTEX
8
CABINET
10
0
20
0
30
0
70
128
71
44
72
41
73
-45
0
VERTEX
8
CABINET
10
0
20
0
30
0
70
128
71
-45
72
47
73
48
0
VERTEX
8
CABINET
10
0
20
0
30
0
70
128
71
45
72
46
73
-47
0
VERTEX
8
CABINET
10
0
20
0
30
0
70
128
71
51
72
50
73
-49
0
VERTEX
8
CABINET
10
0
20
0
30
0
70
128
71
52
72
-51
73
49
0
VERTEX
8
CABINET
10
0
20
0
30
0
70
128
71
54
72
53
73
-49
0
VERTEX
8
CABINET
10
0
20
0
30
0
70
128
71
50
72
-54
73
49
0
VERTEX
8
CABINET
10
0
20
0
30
0
70
128
71
55
72
54
73
-50
0
VERTEX
8
CABINET
10
0
20
0
30
0
70
128
71
51
72
-55
73
50
0
VERTEX
8
CABINET
10
0
20
0
30
0
70
128
71
56
72
55
73
-51
0
VERTEX
8
CABINET
10
0
20
0
30
0
70
128
71
52
72
-56
73
51
0
VERTEX
8
CABINET
10
0
20
0
30
0
70
128
71
53
72
56
73
-52
0
VERTEX
8
CABINET
10
0
20
0
30
0
70
128
71
49
72
-53
73
52
0
VERTEX
8
CABINET
10
0
20
0
30
0
70
128
71
55
72
56
73
-53
0
VERTEX
8
CABINET
10
0
20
0
30
0
70
128
71
54
72
-55
73
53
0
VERTEX
8
CABINET
10
0
20
0
30
0
70
128
71
59
72
58
73
-57
0
VERTEX
8
CABINET
10
0
20
0
30
0
70
128
71
60
72
-59
73
57
0
VERTEX
8
CABINET
10
0
20
0
30
0
70
128
71
62
72
61
73
-57
0
VERTEX
8
CABINET
10
0
20
0
30
0
70
128
71
58
72
-62
73
57
0
VERTEX
8
CABINET
10
0
20
0
30
0
70
128
71
63
72
62
73
-58
0
VERTEX
8
CABINET
10
0
20
0
30
0
70
128
71
59
72
-63
73
58
0
VERTEX
8
CABINET
10
0
20
0
30
0
70
128
71
64
72
63
73
-59
0
VERTEX
8
CABINET
10
0
20
0
30
0
70
128
71
60
72
-64
73
59
0
VERTEX
8
CABINET
10
0
20
0
30
0
70
128
71
61
72
64
73
-60
0
VERTEX
8
CABINET
10
0
20
0
30
0
70
128
71
57
72
-61
73
60
0
VERTEX
8
CABINET
10
0
20
0
30
0
70
128
71
63
72
64
73
-61
0
VERTEX
8
CABINET
10
0
20
0
30
0
70
128
71
62
72
-63
73
61
0
VERTEX
8
CABINET
10
0
20
0
30
0
70
128
71
67
72
66
73
-65
0
VERTEX
8
CABINET
10
0
20
0
30
0
70
128
71
68
72
-67
73
65
0
VERTEX
8
CABINET
10
0
20
0
30
0
70
128
71
70
72
69
73
-65
0
VERTEX
8
CABINET
10
0
20
0
30
0
70
128
71
66
72
-70
73
65
0
VERTEX
8
CABINET
10
0
20
0
30
0
70
128
71
71
72
70
73
-66
0
VERTEX
8
CABINET
10
0
20
0
30
0
70
128
71
67
72
-71
73
66
0
VERTEX
8
CABINET
10
0
20
0
30
0
70
128
71
72
72
71
73
-67
0
VERTEX
8
CABINET
10
0
20
0
30
0
70
128
71
68
72
-72
73
67
0
VERTEX
8
CABINET
10
0
20
0
30
0
70
128
71
69
72
72
73
-68
0
VERTEX
8
CABINET
10
0
20
0
30
0
70
128
71
65
72
-69
73
68
0
VERTEX
8
CABINET
10
0
20
0
30
0
70
128
71
71
72
72
73
-69
0
VERTEX
8
CABINET
10
0
20
0
30
0
70
128
71
70
72
-71
73
69
0
VERTEX
8
CABINET
10
0
20
0
30
0
70
128
71
75
72
74
73
-73
0
VERTEX
8
CABINET
10
0
20
0
30
0
70
128
71
76
72
-75
73
73
0
VERTEX
8
CABINET
10
0
20
0
30
0
70
128
71
78
72
77
73
-73
0
VERTEX
8
CABINET
10
0
20
0
30
0
70
128
71
74
72
-78
73
73
0
VERTEX
8
CABINET
10
0
20
0
30
0
70
128
71
79
72
78
73
-74
0
VERTEX
8
CABINET
10
0
20
0
30
0
70
128
71
75
72
-79
73
74
0
VERTEX
8
CABINET
10
0
20
0
30
0
70
128
71
80
72
79
73
-75
0
VERTEX
8
CABINET
10
0
20
0
30
0
70
128
71
76
72
-80
73
75
0
VERTEX
8
CABINET
10
0
20
0
30
0
70
128
71
77
72
80
73
-76
0
VERTEX
8
CABINET
10
0
20
0
30
0
70
128
71
73
72
-77
73
76
0
VERTEX
8
CABINET
10
0
20
0
30
0
70
128
71
79
72
80
73
-77
0
VERTEX
8
CABINET
10
0
20
0
30
0
70
128
71
78
72
-79
73
77
0
VERTEX
8
CABINET
10
0
20
0
30
0
70
128
71
83
72
82
73
-81
0
VERTEX
8
CABINET
10
0
20
0
30
0
70
128
71
84
72
-83
73
81
0
VERTEX
8
CABINET
10
0
20
0
30
0
70
128
71
86
72
85
73
-81
0
VERTEX
8
CABINET
10
0
20
0
30
0
70
128
71
82
72
-86
73
81
0
VERTEX
8
CABINET
10
0
20
0
30
0
70
128
71
87
72
86
73
-82
0
VERTEX
8
CABINET
10
0
20
0
30
0
70
128
71
83
72
-87
73
82
0
VERTEX
8
CABINET
10
0
20
0
30
0
70
128
71
88
72
87
73
-83
0
VERTEX
8
CABINET
10
0
20
0
30
0
70
128
71
84
72
-88
73
83
0
VERTEX
8
CABINET
10
0
20
0
30
0
70
128
71
85
72
88
73
-84
0
VERTEX
8
CABINET
10
0
20
0
30
0
70
128
71
81
72
-85
73
84
0
VERTEX
8
CABINET
10
0
20
0
30
0
70
128
71
87
72
88
73
-85
0
VERTEX
8
CABINET
10
0
20
0
30
0
70
128
71
86
72
-87
73
85
0
VERTEX
8
CABINET
10
0
20
0
30
0
70
128
71
91
72
90
73
-89
0
VERTEX
8
CABINET
10
0
20
0
30
0
70
128
71
92
72
-91
73
89
0
VERTEX
8
CABINET
10
0
20
0
30
0
70
128
71
94
72
93
73
-89
0
VERTEX
8
CABINET
10
0
20
0
30
0
70
128
71
90
72
-94
73
89
0
VERTEX
8
CABINET
10
0
20
0
30
0
70
128
71
95
72
94
73
-90
0
VERTEX
8
CABINET
10
0
20
0
30
0
70
128
71
91
72
-95
73
90
0
VERTEX
8
CABINET
10
0
20
0
30
0
70
128
71
96
72
95
73
-91
0
VERTEX
8
CABINET
10
0
20
0
30
0
70
128
71
92
72
-96
73
91
0
VERTEX
8
CABINET
10
0
20
0
30
0
70
128
71
93
72
96
73
-92
0
VERTEX
8
CABINET
10
0
20
0
30
0
70
128
71
89
72
-93
73
92
0
VERTEX
8
CABINET
10
0
20
0
30
0
70
128
71
95
72
96
73
-93
0
VERTEX
8
CABINET
10
0
20
0
30
0
70
128
71
94
72
-95
73
93
0
VERTEX
8
CABINET
10
0
20
0
30
0
70
128
71
99
72
98
73
-97
0
VERTEX
8
CABINET
10
0
20
0
30
0
70
128
71
100
72
-99
73
97
0
VERTEX
8
CABINET
10
0
20
0
30
0
70
128
71
102
72
101
73
-97
0
VERTEX
8
CABINET
10
0
20
0
30
0
70
128
71
98
72
-102
73
97
0
VERTEX
8
CABINET
10
0
20
0
30
0
70
128
71
103
72
102
73
-98
0
VERTEX
8
CABINET
10
0
20
0
30
0
70
128
71
99
72
-103
73
98
0
VERTEX
8
CABINET
10
0
20
0
30
0
70
128
71
104
72
103
73
-99
0
VERTEX
8
CABINET
10
0
20
0
30
0
70
128
71
100
72
-104
73
99
0
VERTEX
8
CABINET
10
0
20
0
30
0
70
128
71
101
72
104
73
-100
0
VERTEX
8
CABINET
10
0
20
0
30
0
70
128
71
97
72
-101
73
100
0
VERTEX
8
CABINET
10
0
20
0
30
0
70
128
71
103
72
104
73
-101
0
VERTEX
8
CABINET
10
0
20
0
30
0
70
128
71
102
72
-103
73
101
0
VERTEX
8
CABINET
10
0
20
0
30
0
70
128
71
107
72
106
73
-105
0
VERTEX
8
CABINET
10
0
20
0
30
0
70
128
71
108
72
-107
73
105
0
VERTEX
8
CABINET
10
0
20
0
30
0
70
128
71
110
72
109
73
-105
0
VERTEX
8
CABINET
10
0
20
0
30
0
70
128
71
106
72
-110
73
105
0
VERTEX
8
CABINET
10
0
20
0
30
0
70
128
71
111
72
110
73
-106
0
VERTEX
8
CABINET
10
0
20
0
30
0
70
128
71
107
72
-111
73
106
0
VERTEX
8
CABINET
10
0
20
0
30
0
70
128
71
112
72
111
73
-107
0
VERTEX
8
CABINET
10
0
20
0
30
0
70
128
71
108
72
-112
73
107
0
VERTEX
8
CABINET
10
0
20
0
30
0
70
128
71
109
72
112
73
-108
0
VERTEX
8
CABINET
10
0
20
0
30
0
70
128
71
105
72
-109
73
108
0
VERTEX
8
CABINET
10
0
20
0
30
0
70
128
71
111
72
112
73
-109
0
VERTEX
8
CABINET
10
0
20
0
30
0
70
128
71
110
72
-111
73
109
0
VERTEX
8
CABINET
10
0
20
0
30
0
70
128
71
-113
72
122
73
114
0
VERTEX
8
CABINET
10
0
20
0
30
0
70
128
71
113
72
121
73
-122
0
VERTEX
8
CABINET
10
0
20
0
30
0
70
128
71
-114
72
123
73
115
0
VERTEX
8
CABINET
10
0
20
0
30
0
70
128
71
114
72
122
73
-123
0
VERTEX
8
CABINET
10
0
20
0
30
0
70
128
71
-115
72
124
73
116
0
VERTEX
8
CABINET
10
0
20
0
30
0
70
128
71
115
72
123
73
-124
0
VERTEX
8
CABINET
10
0
20
0
30
0
70
128
71
-116
72
125
73
117
0
VERTEX
8
CABINET
10
0
20
0
30
0
70
128
71
116
72
124
73
-125
0
VERTEX
8
CABINET
10
0
20
0
30
0
70
128
71
-117
72
126
73
118
0
VERTEX
8
CABINET
10
0
20
0
30
0
70
128
71
117
72
125
73
-126
0
VERTEX
8
CABINET
10
0
20
0
30
0
70
128
71
-118
72
127
73
119
0
VERTEX
8
CABINET
10
0
20
0
30
0
70
128
71
118
72
126
73
-127
0
VERTEX
8
CABINET
10
0
20
0
30
0
70
128
71
-119
72
128
73
120
0
VERTEX
8
CABINET
10
0
20
0
30
0
70
128
71
119
72
127
73
-128
0
VERTEX
8
CABINET
10
0
20
0
30
0
70
128
71
-120
72
121
73
113
0
VERTEX
8
CABINET
10
0
20
0
30
0
70
128
71
120
72
128
73
-121
0
VERTEX
8
CABINET
10
0
20
0
30
0
70
128
71
116
72
117
73
-118
0
VERTEX
8
CABINET
10
0
20
0
30
0
70
128
71
-116
72
118
73
-119
0
VERTEX
8
CABINET
10
0
20
0
30
0
70
128
71
-116
72
119
73
-120
0
VERTEX
8
CABINET
10
0
20
0
30
0
70
128
71
115
72
-116
73
-120
0
VERTEX
8
CABINET
10
0
20
0
30
0
70
128
71
-115
72
120
73
-113
0
VERTEX
8
CABINET
10
0
20
0
30
0
70
128
71
114
72
-115
73
113
0
VERTEX
8
CABINET
10
0
20
0
30
0
70
128
71
-124
72
126
73
125
0
VERTEX
8
CABINET
10
0
20
0
30
0
70
128
71
-124
72
127
73
-126
0
VERTEX
8
CABINET
10
0
20
0
30
0
70
128
71
-124
72
128
73
-127
0
VERTEX
8
CABINET
10
0
20
0
30
0
70
128
71
-123
72
-128
73
124
0
VERTEX
8
CABINET
10
0
20
0
30
0
70
128
71
-123
72
121
73
-128
0
VERTEX
8
CABINET
10
0
20
0
30
0
70
128
71
122
72
-121
73
123
0
VERTEX
8
CABINET
10
0
20
0
30
0
70
128
71
129
72
130
73
-138
0
VERTEX
8
CABINET
10
0
20
0
30
0
70
128
71
-129
72
138
73
137
0
VERTEX
8
CABINET
10
0
20
0
30
0
70
128
71
130
72
131
73
-139
0
VERTEX
8
CABINET
10
0
20
0
30
0
70
128
71
-130
72
139
73
138
0
VERTEX
8
CABINET
10
0
20
0
30
0
70
128
71
131
72
132
73
-140
0
VERTEX
8
CABINET
10
0
20
0
30
0
70
128
71
-131
72
140
73
139
0
VERTEX
8
CABINET
10
0
20
0
30
0
70
128
71
132
72
133
73
-141
0
VERTEX
8
CABINET
10
0
20
0
30
0
70
128
71
-132
72
141
73
140
0
VERTEX
8
CABINET
10
0
20
0
30
0
70
128
71
133
72
134
73
-142
0
VERTEX
8
CABINET
10
0
20
0
30
0
70
128
71
-133
72
142
73
141
0
VERTEX
8
CABINET
10
0
20
0
30
0
70
128
71
134
72
135
73
-143
0
VERTEX
8
CABINET
10
0
20
0
30
0
70
128
71
-134
72
143
73
142
0
VERTEX
8
CABINET
10
0
20
0
30
0
70
128
71
135
72
136
73
-144
0
VERTEX
8
CABINET
10
0
20
0
30
0
70
128
71
-135
72
144
73
143
0
VERTEX
8
CABINET
10
0
20
0
30
0
70
128
71
136
72
129
73
-137
0
VERTEX
8
CABINET
10
0
20
0
30
0
70
128
71
-136
72
137
73
144
0
VERTEX
8
CABINET
10
0
20
0
30
0
70
128
71
-132
72
134
73
133
0
VERTEX
8
CABINET
10
0
20
0
30
0
70
128
71
-132
72
135
73
-134
0
VERTEX
8
CABINET
10
0
20
0
30
0
70
128
71
-132
72
136
73
-135
0
VERTEX
8
CABINET
10
0
20
0
30
0
70
128
71
-131
72
-136
73
132
0
VERTEX
8
CABINET
10
0
20
0
30
0
70
128
71
-131
72
129
73
-136
0
VERTEX
8
CABINET
10
0
20
0
30
0
70
128
71
130
72
-129
73
131
0
VERTEX
8
CABINET
10
0
20
0
30
0
70
128
71
140
72
141
73
-142
0
VERTEX
8
CABINET
10
0
20
0
30
0
70
128
71
-140
72
142
73
-143
0
VERTEX
8
CABINET
10
0
20
0
30
0
70
128
71
-140
72
143
73
-144
0
VERTEX
8
CABINET
10
0
20
0
30
0
70
128
71
139
72
-140
73
-144
0
VERTEX
8
CABINET
10
0
20
0
30
0
70
128
71
-139
72
144
73
-137
0
VERTEX
8
CABINET
10
0
20
0
30
0
70
128
71
138
72
-139
73
137
0
VERTEX
8
CABINET
10
0
20
0
30
0
70
128
71
145
72
147
73
-146
0
VERTEX
8
CABINET
10
0
20
0
30
0
70
128
71
-145
72
146
73
148
0
VERTEX
8
CABINET
10
0
20
0
30
0
70
128
71
147
72
150
73
-149
0
VERTEX
8
CABINET
10
0
20
0
30
0
70
128
71
-147
72
149
73
146
0
VERTEX
8
CABINET
10
0
20
0
30
0
70
128
71
150
72
152
73
-151
0
VERTEX
8
CABINET
10
0
20
0
30
0
70
128
71
-150
72
151
73
149
0
VERTEX
8
CABINET
10
0
20
0
30
0
70
128
71
152
72
154
73
-153
0
VERTEX
8
CABINET
10
0
20
0
30
0
70
128
71
-152
72
153
73
151
0
VERTEX
8
CABINET
10
0
20
0
30
0
70
128
71
154
72
156
73
-155
0
VERTEX
8
CABINET
10
0
20
0
30
0
70
128
71
-154
72
155
73
153
0
VERTEX
8
CABINET
10
0
20
0
30
0
70
128
71
156
72
158
73
-157
0
VERTEX
8
CABINET
10
0
20
0
30
0
70
128
71
-156
72
157
73
155
0
VERTEX
8
CABINET
10
0
20
0
30
0
70
128
71
158
72
160
73
-159
0
VERTEX
8
CABINET
10
0
20
0
30
0
70
128
71
-158
72
159
73
157
0
VERTEX
8
CABINET
10
0
20
0
30
0
70
128
71
160
72
145
73
-148
0
VERTEX
8
CABINET
10
0
20
0
30
0
70
128
71
-160
72
148
73
159
0
VERTEX
8
CABINET
10
0
20
0
30
0
70
128
71
-152
72
156
73
154
0
VERTEX
8
CABINET
10
0
20
0
30
0
70
128
71
-152
72
158
73
-156
0
VERTEX
8
CABINET
10
0
20
0
30
0
70
128
71
-152
72
160
73
-158
0
VERTEX
8
CABINET
10
0
20
0
30
0
70
128
71
-150
72
-160
73
152
0
VERTEX
8
CABINET
10
0
20
0
30
0
70
128
71
-150
72
145
73
-160
0
VERTEX
8
CABINET
10
0
20
0
30
0
70
128
71
147
72
-145
73
150
0
VERTEX
8
CABINET
10
0
20
0
30
0
70
128
71
151
72
153
73
-155
0
VERTEX
8
CABINET
10
0
20
0
30
0
70
128
71
-151
72
155
73
-157
0
VERTEX
8
CABINET
10
0
20
0
30
0
70
128
71
-151
72
157
73
-159
0
VERTEX
8
CABINET
10
0
20
0
30
0
70
128
71
149
72
-151
73
-159
0
VERTEX
8
CABINET
10
0
20
0
30
0
70
128
71
-149
72
159
73
-148
0
VERTEX
8
CABINET
10
0
20
0
30
0
70
128
71
146
72
-149
73
148
0
SEQEND
8
CABINET
0
POLYLINE
8
DOOR02
66
1
70
64
71
16
72
24
62
13
0
VERTEX
8
DOOR02
10
96.875023
20
-19.375006
30
10.375011
70
192
0
VERTEX
8
DOOR02
10
96.875038
20
-19.375006
30
116.875008
70
192
0
VERTEX
8
DOOR02
10
-1.624966
20
-19.375019
30
116.875000
70
192
0
VERTEX
8
DOOR02
10
-1.624977
20
-19.375019
30
10.374996
70
192
0
VERTEX
8
DOOR02
10
96.875023
20
-19.875006
30
10.375011
70
192
0
VERTEX
8
DOOR02
10
96.875038
20
-19.875006
30
116.875008
70
192
0
VERTEX
8
DOOR02
10
-1.624966
20
-19.875019
30
116.875000
70
192
0
VERTEX
8
DOOR02
10
-1.624977
20
-19.875019
30
10.374996
70
192
0
VERTEX
8
DOOR02
10
95.000053
20
-20.125006
30
62.999996
70
192
0
VERTEX
8
DOOR02
10
94.500053
20
-20.125006
30
62.999996
70
192
0
VERTEX
8
DOOR02
10
94.500053
20
-20.125006
30
73.000000
70
192
0
VERTEX
8
DOOR02
10
95.000053
20
-20.125006
30
73.000000
70
192
0
VERTEX
8
DOOR02
10
95.000053
20
-22.125006
30
62.999996
70
192
0
VERTEX
8
DOOR02
10
94.500053
20
-22.125006
30
62.999996
70
192
0
VERTEX
8
DOOR02
10
94.500053
20
-22.125006
30
73.000000
70
192
0
VERTEX
8
DOOR02
10
95.000053
20
-22.125006
30
73.000000
70
192
0
VERTEX
8
DOOR02
10
0
20
0
30
0
70
128
71
3
72
2
73
-1
0
VERTEX
8
DOOR02
10
0
20
0
30
0
70
128
71
4
72
-3
73
1
0
VERTEX
8
DOOR02
10
0
20
0
30
0
70
128
71
6
72
5
73
-1
0
VERTEX
8
DOOR02
10
0
20
0
30
0
70
128
71
2
72
-6
73
1
0
VERTEX
8
DOOR02
10
0
20
0
30
0
70
128
71
7
72
6
73
-2
0
VERTEX
8
DOOR02
10
0
20
0
30
0
70
128
71
3
72
-7
73
2
0
VERTEX
8
DOOR02
10
0
20
0
30
0
70
128
71
8
72
7
73
-3
0
VERTEX
8
DOOR02
10
0
20
0
30
0
70
128
71
4
72
-8
73
3
0
VERTEX
8
DOOR02
10
0
20
0
30
0
70
128
71
5
72
8
73
-4
0
VERTEX
8
DOOR02
10
0
20
0
30
0
70
128
71
1
72
-5
73
4
0
VERTEX
8
DOOR02
10
0
20
0
30
0
70
128
71
7
72
8
73
-5
0
VERTEX
8
DOOR02
10
0
20
0
30
0
70
128
71
6
72
-7
73
5
0
VERTEX
8
DOOR02
10
0
20
0
30
0
70
128
71
10
72
-11
73
9
0
VERTEX
8
DOOR02
10
0
20
0
30
0
70
128
71
11
72
12
73
-9
0
VERTEX
8
DOOR02
10
0
20
0
30
0
70
128
71
13
72
-14
73
9
0
VERTEX
8
DOOR02
10
0
20
0
30
0
70
128
71
14
72
10
73
-9
0
VERTEX
8
DOOR02
10
0
20
0
30
0
70
128
71
14
72
-15
73
10
0
VERTEX
8
DOOR02
10
0
20
0
30
0
70
128
71
15
72
11
73
-10
0
VERTEX
8
DOOR02
10
0
20
0
30
0
70
128
71
15
72
-16
73
11
0
VERTEX
8
DOOR02
10
0
20
0
30
0
70
128
71
16
72
12
73
-11
0
VERTEX
8
DOOR02
10
0
20
0
30
0
70
128
71
16
72
-13
73
12
0
VERTEX
8
DOOR02
10
0
20
0
30
0
70
128
71
13
72
9
73
-12
0
VERTEX
8
DOOR02
10
0
20
0
30
0
70
128
71
16
72
-15
73
13
0
VERTEX
8
DOOR02
10
0
20
0
30
0
70
128
71
15
72
14
73
-13
0
SEQEND
8
DOOR02
0
POLYLINE
8
DOOR01
66
1
70
64
71
16
72
24
62
44
0
VERTEX
8
DOOR01
10
1.625023
20
-20.375011
30
10.375019
70
192
0
VERTEX
8
DOOR01
10
1.625034
20
-20.375011
30
116.587936
70
192
0
VERTEX
8
DOOR01
10
-96.874985
20
-20.375027
30
116.587929
70
192
0
VERTEX
8
DOOR01
10
-96.874977
20
-20.375027
30
10.375004
70
192
0
VERTEX
8
DOOR01
10
1.625023
20
-20.875011
30
10.375019
70
192
0
VERTEX
8
DOOR01
10
1.625034
20
-20.875011
30
116.587936
70
192
0
VERTEX
8
DOOR01
10
-96.874985
20
-20.875027
30
116.587929
70
192
0
VERTEX
8
DOOR01
10
-96.874977
20
-20.875027
30
10.375004
70
192
0
VERTEX
8
DOOR01
10
-94.999939
20
-21.125019
30
63.000011
70
192
0
VERTEX
8
DOOR01
10
-94.499939
20
-21.125019
30
63.000011
70
192
0
VERTEX
8
DOOR01
10
-94.499954
20
-21.125019
30
73.000015
70
192
0
VERTEX
8
DOOR01
10
-94.999954
20
-21.125019
30
73.000015
70
192
0
VERTEX
8
DOOR01
10
-94.999939
20
-23.125019
30
63.000011
70
192
0
VERTEX
8
DOOR01
10
-94.499939
20
-23.125019
30
63.000011
70
192
0
VERTEX
8
DOOR01
10
-94.499954
20
-23.125019
30
73.000015
70
192
0
VERTEX
8
DOOR01
10
-94.999954
20
-23.125019
30
73.000015
70
192
0
VERTEX
8
DOOR01
10
0
20
0
30
0
70
128
71
3
72
2
73
-1
0
VERTEX
8
DOOR01
10
0
20
0
30
0
70
128
71
4
72
-3
73
1
0
VERTEX
8
DOOR01
10
0
20
0
30
0
70
128
71
6
72
5
73
-1
0
VERTEX
8
DOOR01
10
0
20
0
30
0
70
128
71
2
72
-6
73
1
0
VERTEX
8
DOOR01
10
0
20
0
30
0
70
128
71
7
72
6
73
-2
0
VERTEX
8
DOOR01
10
0
20
0
30
0
70
128
71
3
72
-7
73
2
0
VERTEX
8
DOOR01
10
0
20
0
30
0
70
128
71
8
72
7
73
-3
0
VERTEX
8
DOOR01
10
0
20
0
30
0
70
128
71
4
72
-8
73
3
0
VERTEX
8
DOOR01
10
0
20
0
30
0
70
128
71
5
72
8
73
-4
0
VERTEX
8
DOOR01
10
0
20
0
30
0
70
128
71
1
72
-5
73
4
0
VERTEX
8
DOOR01
10
0
20
0
30
0
70
128
71
7
72
8
73
-5
0
VERTEX
8
DOOR01
10
0
20
0
30
0
70
128
71
6
72
-7
73
5
0
VERTEX
8
DOOR01
10
0
20
0
30
0
70
128
71
-9
72
11
73
10
0
VERTEX
8
DOOR01
10
0
20
0
30
0
70
128
71
9
72
12
73
-11
0
VERTEX
8
DOOR01
10
0
20
0
30
0
70
128
71
-9
72
14
73
13
0
VERTEX
8
DOOR01
10
0
20
0
30
0
70
128
71
9
72
10
73
-14
0
VERTEX
8
DOOR01
10
0
20
0
30
0
70
128
71
-10
72
15
73
14
0
VERTEX
8
DOOR01
10
0
20
0
30
0
70
128
71
10
72
11
73
-15
0
VERTEX
8
DOOR01
10
0
20
0
30
0
70
128
71
-11
72
16
73
15
0
VERTEX
8
DOOR01
10
0
20
0
30
0
70
128
71
11
72
12
73
-16
0
VERTEX
8
DOOR01
10
0
20
0
30
0
70
128
71
-12
72
13
73
16
0
VERTEX
8
DOOR01
10
0
20
0
30
0
70
128
71
12
72
9
73
-13
0
VERTEX
8
DOOR01
10
0
20
0
30
0
70
128
71
-13
72
15
73
16
0
VERTEX
8
DOOR01
10
0
20
0
30
0
70
128
71
13
72
14
73
-15
0
SEQEND
8
DOOR01
0
ENDSEC
0
EOF
